<svg width="26" height="20" viewBox="0 0 26 20" fill="none" xmlns="http://www.w3.org/2000/svg">
<path d="M16 5.5C16 5.22386 15.7761 5 15.5 5H3C1.89543 5 1 5.89543 1 7V13C1 14.1046 1.89543 15 3 15H15.5C15.7761 15 16 14.7761 16 14.5V14.5C16 14.2239 15.7761 14 15.5 14H3C2.44772 14 2 13.5523 2 13V7C2 6.44772 2.44772 6 3 6H15.5C15.7761 6 16 5.77614 16 5.5V5.5Z" fill="white"/>
<path d="M19 14.5C19 14.2239 19.2239 14 19.5 14H23C23.5523 14 24 13.5523 24 13V7C24 6.44772 23.5523 6 23 6H19.5C19.2239 6 19 5.77614 19 5.5V5.5C19 5.22386 19.2239 5 19.5 5H23C24.1046 5 25 5.89543 25 7V13C25 14.1046 24.1046 15 23 15H19.5C19.2239 15 19 14.7761 19 14.5V14.5Z" fill="white"/>
<path d="M15 2.5C15 2.22386 15.2239 2 15.5 2H19.5C19.7761 2 20 2.22386 20 2.5C20 2.77614 19.7761 3 19.5 3H18.2C18.0895 3 18 3.08954 18 3.2V16.8C18 16.9105 18.0895 17 18.2 17H19.5C19.7761 17 20 17.2239 20 17.5C20 17.7761 19.7761 18 19.5 18H15.5C15.2239 18 15 17.7761 15 17.5C15 17.2239 15.2239 17 15.5 17H16.8C16.9105 17 17 16.9105 17 16.8V3.2C17 3.08954 16.9105 3 16.8 3H15.5C15.2239 3 15 2.77614 15 2.5Z" fill="white"/>
</svg>
