<svg width="26" height="20" viewBox="0 0 26 20" fill="none" xmlns="http://www.w3.org/2000/svg">
<g clip-path="url(#clip0_111_1037)">
<path d="M8.40379 7.5251C8.59906 7.32984 8.91564 7.32984 9.1109 7.5251C9.30616 7.72036 9.30616 8.03695 9.1109 8.23221L5.92892 11.4142C4.36682 12.9763 4.36682 15.5089 5.92892 17.071C7.49102 18.6331 10.0237 18.6331 11.5858 17.071L14.7678 13.8891C14.963 13.6938 15.2796 13.6938 15.4749 13.8891C15.6701 14.0843 15.6701 14.4009 15.4749 14.5962L12.2929 17.7781C10.3403 19.7308 7.17443 19.7308 5.22181 17.7781C3.26919 15.8255 3.26919 12.6597 5.22181 10.7071L8.40379 7.5251Z" fill="white"/>
<path d="M17.5962 12.4748C17.4009 12.6701 17.0843 12.6701 16.8891 12.4748C16.6938 12.2796 16.6938 11.963 16.8891 11.7677L20.0711 8.58576C21.6332 7.02366 21.6332 4.491 20.0711 2.92891C18.509 1.36681 15.9763 1.36681 14.4142 2.92891L11.2322 6.11089C11.037 6.30615 10.7204 6.30615 10.5251 6.11089C10.3299 5.91562 10.3299 5.59904 10.5251 5.40378L13.7071 2.2218C15.6597 0.269179 18.8255 0.269178 20.7782 2.2218C22.7308 4.17442 22.7308 7.34025 20.7782 9.29287L17.5962 12.4748Z" fill="white"/>
<path d="M9.46445 12.8284C9.26919 13.0237 9.26919 13.3402 9.46445 13.5355C9.65972 13.7308 9.9763 13.7308 10.1716 13.5355L16.5355 7.17155C16.7308 6.97629 16.7308 6.6597 16.5355 6.46444C16.3403 6.26918 16.0237 6.26918 15.8284 6.46444L9.46445 12.8284Z" fill="white"/>
</g>
<defs>
<clipPath id="clip0_111_1037">
<rect width="26" height="20" fill="white"/>
</clipPath>
</defs>
</svg>
