<svg width="26" height="20" viewBox="0 0 26 20" fill="none" xmlns="http://www.w3.org/2000/svg">
<g clip-path="url(#clip0_116_941)">
<path fill-rule="evenodd" clip-rule="evenodd" d="M18.8891 3.69667C18.108 2.91562 16.8417 2.91562 16.0607 3.69667C15.7419 4.01545 15.5537 4.41372 15.4949 4.82756V4.82756C15.4369 5.23564 14.9378 5.40222 14.6463 5.11076L12.5249 2.98934C12.3298 2.7942 12.0134 2.7942 11.8182 2.98934L10.283 4.52459C10.5825 4.66765 10.8632 4.86314 11.1109 5.11089C12.2825 6.28246 12.2825 8.18195 11.1109 9.35353C9.93934 10.5251 8.03984 10.5251 6.86827 9.35353C6.62053 9.10578 6.42504 8.82512 6.28198 8.52561L4.74695 10.0606C4.55169 10.2559 4.55169 10.5725 4.74695 10.7677L11.818 17.8388C12.0133 18.0341 12.3299 18.0341 12.5251 17.8388L19.5964 10.7675C19.7916 10.5724 19.7916 10.256 19.5964 10.0609L17.475 7.93944C17.1835 7.64798 17.3501 7.14886 17.7582 7.09086V7.09086C18.172 7.03205 18.5703 6.84388 18.8891 6.5251C19.6701 5.74405 19.6701 4.47772 18.8891 3.69667ZM15.3536 2.98957C16.5251 1.81799 18.4246 1.81799 19.5962 2.98957C20.7678 4.16114 20.7678 6.06063 19.5962 7.23221C19.3484 7.47995 19.0678 7.67544 18.7683 7.8185L20.6569 9.70708C21.0474 10.0976 21.0474 10.7308 20.6569 11.1213L12.8787 18.8995C12.4882 19.29 11.855 19.29 11.4645 18.8995L3.68629 11.1213C3.29577 10.7308 3.29577 10.0976 3.68629 9.70708L6.16104 7.23234C6.4525 6.94087 6.95162 7.10745 7.00961 7.51554V7.51554C7.06843 7.92938 7.2566 8.32764 7.57538 8.64642C8.35643 9.42747 9.62276 9.42747 10.4038 8.64642C11.1849 7.86537 11.1849 6.59904 10.4038 5.81799C10.085 5.49922 9.68676 5.31104 9.27292 5.25223V5.25223C8.86483 5.19423 8.69826 4.69511 8.98972 4.40365L11.4645 1.92891C11.855 1.53838 12.4882 1.53838 12.8787 1.92891L14.7673 3.81748C14.9103 3.51797 15.1058 3.23731 15.3536 2.98957Z" fill="white"/>
</g>
<defs>
<clipPath id="clip0_116_941">
<rect width="26" height="20" fill="white"/>
</clipPath>
</defs>
</svg>
