<svg width="26" height="20" viewBox="0 0 26 20" fill="none" xmlns="http://www.w3.org/2000/svg">
<path fill-rule="evenodd" clip-rule="evenodd" d="M21.9451 16C21.7312 14.0653 20.9041 13.0477 19.6624 11.8927C19.2459 11.5052 19 10.9665 19 10.3977V7C19 3.68629 16.3137 1 13 1C9.68629 1 7 3.68629 7 7V10.3977C7 10.9665 6.75413 11.5052 6.3376 11.8927C5.09592 13.0477 4.2688 14.0653 4.05493 16C4.03625 16.169 4.02249 16.3345 4.01342 16.5002C3.99833 16.776 4.22386 17 4.5 17H21.5C21.7761 17 22.0017 16.776 21.9866 16.5002C21.9775 16.3345 21.9638 16.169 21.9451 16ZM18.9633 12.6671V12.6671C18.4034 12.0413 18 11.266 18 10.4262V7C18 4.23858 15.7614 2 13 2C10.2386 2 8 4.23858 8 7V10.4262C8 11.266 7.59665 12.0413 7.03667 12.6671V12.6671C6.05472 13.7644 5.37117 14.2715 5.11355 15.6637C5.08073 15.8411 5.22121 16 5.40163 16H20.5984C20.7788 16 20.9193 15.8411 20.8864 15.6637C20.6288 14.2715 19.9453 13.7644 18.9633 12.6671Z" fill="white"/>
<path d="M11.2113 18C11.0384 18 10.9528 18.1997 11.0859 18.3101C11.6053 18.741 12.2724 19 13 19C13.7276 19 14.3947 18.741 14.9142 18.3101C15.0472 18.1997 14.9616 18 14.7887 18H11.2113Z" fill="white"/>
<path d="M3 2.88046C3 2.4271 2.48439 2.18779 2.17365 2.51791C0.825866 3.94978 0 5.87848 0 8.00007C0 10.1217 0.825867 12.0504 2.17365 13.4822C2.48439 13.8123 3 13.573 3 13.1197V13.1197C3 12.9783 2.94384 12.8431 2.84807 12.7391C1.70066 11.4923 1 9.82803 1 8.00007C1 6.17211 1.70066 4.50781 2.84807 3.26106C2.94384 3.15701 3 3.02188 3 2.88046V2.88046Z" fill="white"/>
<path d="M23 13.1197C23 12.9783 23.0562 12.8431 23.1519 12.7391C24.2993 11.4923 25 9.82803 25 8.00007C25 6.17211 24.2993 4.50781 23.1519 3.26106C23.0562 3.15701 23 3.02188 23 2.88046V2.88046C23 2.4271 23.5156 2.18779 23.8263 2.51791C25.1741 3.94978 26 5.87848 26 8.00007C26 10.1217 25.1741 12.0504 23.8263 13.4822C23.5156 13.8123 23 13.573 23 13.1197V13.1197Z" fill="white"/>
<path fill-rule="evenodd" clip-rule="evenodd" d="M5 4.80841C5 4.31353 4.43409 4.076 4.14315 4.47633C3.4241 5.46572 3 6.68333 3 7.99998C3 9.31664 3.4241 10.5342 4.14315 11.5236C4.43409 11.924 5 11.6864 5 11.1916V11.1916C5 11.0675 4.95882 10.9475 4.88815 10.8455C4.32815 10.0379 4 9.05725 4 7.99998C4 6.94272 4.32815 5.9621 4.88815 5.15442C4.95882 5.05249 5 4.93244 5 4.80841V4.80841ZM21 11.1916C21 11.0675 21.0412 10.9475 21.1118 10.8455C21.6719 10.0379 22 9.05725 22 7.99998C22 6.94272 21.6719 5.9621 21.1118 5.15442C21.0412 5.05249 21 4.93244 21 4.80841V4.80841C21 4.31353 21.5659 4.076 21.8568 4.47632C22.5759 5.46572 23 6.68333 23 7.99998C23 9.31664 22.5759 10.5342 21.8568 11.5236C21.5659 11.924 21 11.6864 21 11.1916V11.1916Z" fill="white"/>
</svg>
