<svg width="26" height="20" viewBox="0 0 26 20" fill="none" xmlns="http://www.w3.org/2000/svg">
<path fill-rule="evenodd" clip-rule="evenodd" d="M1 2C1 1.72386 1.22386 1.5 1.5 1.5H24.5C24.7761 1.5 25 1.72386 25 2C25 2.27614 24.7761 2.5 24.5 2.5H1.5C1.22386 2.5 1 2.27614 1 2ZM1 6C1 5.72386 1.22386 5.5 1.5 5.5H20.5C20.7761 5.5 21 5.72386 21 6C21 6.27614 20.7761 6.5 20.5 6.5H1.5C1.22386 6.5 1 6.27614 1 6ZM1.5 9.5C1.22386 9.5 1 9.72386 1 10C1 10.2761 1.22386 10.5 1.5 10.5H24.5C24.7761 10.5 25 10.2761 25 10C25 9.72386 24.7761 9.5 24.5 9.5H1.5ZM1 14C1 13.7239 1.22386 13.5 1.5 13.5H22.5C22.7761 13.5 23 13.7239 23 14C23 14.2761 22.7761 14.5 22.5 14.5H1.5C1.22386 14.5 1 14.2761 1 14ZM1.5 17.5C1.22386 17.5 1 17.7239 1 18C1 18.2761 1.22386 18.5 1.5 18.5H16.5C16.7761 18.5 17 18.2761 17 18C17 17.7239 16.7761 17.5 16.5 17.5H1.5Z" fill="white"/>
</svg>
