<svg width="26" height="20" viewBox="0 0 26 20" fill="none" xmlns="http://www.w3.org/2000/svg">
<path fill-rule="evenodd" clip-rule="evenodd" d="M6.5 3C5.94772 3 5.5 3.44772 5.5 4V9C5.5 9.55228 5.94772 10 6.5 10H11.5C12.0523 10 12.5 9.55228 12.5 9V4C12.5 3.44772 12.0523 3 11.5 3H6.5ZM11.5 4.5C11.5 4.22386 11.2761 4 11 4H7C6.72386 4 6.5 4.22386 6.5 4.5V8.5C6.5 8.77614 6.72386 9 7 9H11C11.2761 9 11.5 8.77614 11.5 8.5V4.5Z" fill="white"/>
<path fill-rule="evenodd" clip-rule="evenodd" d="M6.5 11C5.94772 11 5.5 11.4477 5.5 12V17C5.5 17.5523 5.94772 18 6.5 18H11.5C12.0523 18 12.5 17.5523 12.5 17V12C12.5 11.4477 12.0523 11 11.5 11H6.5ZM11.5 12.5C11.5 12.2239 11.2761 12 11 12H7C6.72386 12 6.5 12.2239 6.5 12.5V16.5C6.5 16.7761 6.72386 17 7 17H11C11.2761 17 11.5 16.7761 11.5 16.5V12.5Z" fill="white"/>
<path fill-rule="evenodd" clip-rule="evenodd" d="M14.5 18C13.9477 18 13.5 17.5523 13.5 17V12C13.5 11.4477 13.9477 11 14.5 11H19.5C20.0523 11 20.5 11.4477 20.5 12V17C20.5 17.5523 20.0523 18 19.5 18H14.5ZM14.5 12.5C14.5 12.2239 14.7239 12 15 12H19C19.2761 12 19.5 12.2239 19.5 12.5V16.5C19.5 16.7761 19.2761 17 19 17H15C14.7239 17 14.5 16.7761 14.5 16.5V12.5Z" fill="white"/>
<path fill-rule="evenodd" clip-rule="evenodd" d="M21.182 5.85353C21.3772 5.65827 21.3772 5.34169 21.182 5.14643L18.3536 2.318C18.1583 2.12274 17.8417 2.12274 17.6464 2.318L14.818 5.14643C14.6228 5.34169 14.6228 5.65827 14.818 5.85353L17.6464 8.68196C17.8417 8.87722 18.1583 8.87722 18.3536 8.68196L21.182 5.85353ZM18.7071 1.25734C18.3166 0.866814 17.6834 0.866814 17.2929 1.25734L13.7574 4.79287C13.3668 5.1834 13.3668 5.81656 13.7574 6.20709L17.2929 9.74262C17.6834 10.1331 18.3166 10.1331 18.7071 9.74262L22.2426 6.20709C22.6332 5.81656 22.6332 5.1834 22.2426 4.79287L18.7071 1.25734Z" fill="white"/>
</svg>
