<svg width="32" height="18" viewBox="0 0 32 18" fill="none" xmlns="http://www.w3.org/2000/svg">
<path fill-rule="evenodd" clip-rule="evenodd" d="M8 2H3C2.44772 2 2 2.44772 2 3V8C2 8.55228 2.44772 9 3 9H8C8.55228 9 9 8.55228 9 8V3C9 2.44772 8.55228 2 8 2ZM3 1C1.89543 1 1 1.89543 1 3V8C1 9.10457 1.89543 10 3 10H8C9.10457 10 10 9.10457 10 8V3C10 1.89543 9.10457 1 8 1H3Z" fill="white"/>
<path fill-rule="evenodd" clip-rule="evenodd" d="M18.5 2H13.5C12.9477 2 12.5 2.44772 12.5 3V8C12.5 8.55228 12.9477 9 13.5 9H18.5C19.0523 9 19.5 8.55228 19.5 8V3C19.5 2.44772 19.0523 2 18.5 2ZM13.5 1C12.3954 1 11.5 1.89543 11.5 3V8C11.5 9.10457 12.3954 10 13.5 10H18.5C19.6046 10 20.5 9.10457 20.5 8V3C20.5 1.89543 19.6046 1 18.5 1H13.5Z" fill="white"/>
<path fill-rule="evenodd" clip-rule="evenodd" d="M29 2H24C23.4477 2 23 2.44772 23 3V8C23 8.55228 23.4477 9 24 9H29C29.5523 9 30 8.55228 30 8V3C30 2.44772 29.5523 2 29 2ZM24 1C22.8954 1 22 1.89543 22 3V8C22 9.10457 22.8954 10 24 10H29C30.1046 10 31 9.10457 31 8V3C31 1.89543 30.1046 1 29 1H24Z" fill="white"/>
<rect x="1" y="12" width="9" height="1" rx="0.5" fill="white"/>
<rect x="1" y="15" width="6" height="1" rx="0.5" fill="white"/>
<rect x="11.5" y="15" width="4" height="1" rx="0.5" fill="white"/>
<rect x="22" y="15" width="7" height="1" rx="0.5" fill="white"/>
<rect x="11.5" y="12" width="9" height="1" rx="0.5" fill="white"/>
<rect x="22" y="12" width="9" height="1" rx="0.5" fill="white"/>
<path d="M4.98205 4C4.98205 3.72386 5.2059 3.5 5.48205 3.5V3.5C5.75819 3.5 5.98205 3.72386 5.98205 4V4.46659C5.98205 4.541 6.06259 4.5875 6.12703 4.5503L6.53109 4.31702C6.77024 4.17895 7.07603 4.26088 7.2141 4.50003V4.50003C7.35217 4.73918 7.27024 5.04497 7.03109 5.18304L6.62704 5.41632C6.5626 5.45353 6.5626 5.54653 6.62704 5.58374L7.03109 5.81702C7.27024 5.95509 7.35217 6.26088 7.2141 6.50003V6.50003C7.07603 6.73918 6.77024 6.82111 6.53109 6.68304L5.98205 6.36605V7C5.98205 7.27614 5.75819 7.5 5.48205 7.5V7.5C5.2059 7.5 4.98205 7.27614 4.98205 7V6.53347C4.98205 6.45906 4.9015 6.41256 4.83707 6.44976L4.43301 6.68304C4.19387 6.82111 3.88807 6.73918 3.75 6.50003V6.50003C3.61193 6.26088 3.69387 5.95509 3.93301 5.81702L4.33707 5.58374C4.4015 5.54653 4.4015 5.45353 4.33707 5.41632L3.93301 5.18304C3.69387 5.04497 3.61193 4.73918 3.75 4.50003V4.50003C3.88807 4.26088 4.19387 4.17895 4.43301 4.31702L4.83706 4.55029C4.9015 4.5875 4.98205 4.54099 4.98205 4.46659V4Z" fill="white"/>
<path d="M15.482 4C15.482 3.72386 15.7059 3.5 15.982 3.5V3.5C16.2582 3.5 16.482 3.72386 16.482 4V4.46659C16.482 4.541 16.5626 4.5875 16.627 4.5503L17.0311 4.31702C17.2702 4.17895 17.576 4.26088 17.7141 4.50003V4.50003C17.8522 4.73918 17.7702 5.04497 17.5311 5.18304L17.127 5.41632C17.0626 5.45353 17.0626 5.54653 17.127 5.58374L17.5311 5.81702C17.7702 5.95509 17.8522 6.26088 17.7141 6.50003V6.50003C17.576 6.73918 17.2702 6.82111 17.0311 6.68304L16.482 6.36605V7C16.482 7.27614 16.2582 7.5 15.982 7.5V7.5C15.7059 7.5 15.482 7.27614 15.482 7V6.53347C15.482 6.45906 15.4015 6.41256 15.3371 6.44976L14.933 6.68304C14.6939 6.82111 14.3881 6.73918 14.25 6.50003V6.50003C14.1119 6.26088 14.1939 5.95509 14.433 5.81702L14.8371 5.58374C14.9015 5.54653 14.9015 5.45353 14.8371 5.41632L14.433 5.18304C14.1939 5.04497 14.1119 4.73918 14.25 4.50003V4.50003C14.3881 4.26088 14.6939 4.17895 14.933 4.31702L15.3371 4.55029C15.4015 4.5875 15.482 4.54099 15.482 4.46659V4Z" fill="white"/>
<path d="M26.082 4C26.082 3.72386 26.3059 3.5 26.582 3.5V3.5C26.8582 3.5 27.082 3.72386 27.082 4V4.46659C27.082 4.541 27.1626 4.5875 27.227 4.5503L27.6311 4.31702C27.8702 4.17895 28.176 4.26088 28.3141 4.50003V4.50003C28.4521 4.73918 28.3702 5.04497 28.1311 5.18304L27.727 5.41632C27.6626 5.45353 27.6626 5.54653 27.727 5.58374L28.1311 5.81702C28.3702 5.95509 28.4521 6.26088 28.3141 6.50003V6.50003C28.176 6.73918 27.8702 6.82111 27.6311 6.68304L27.082 6.36605V7C27.082 7.27614 26.8582 7.5 26.582 7.5V7.5C26.3059 7.5 26.082 7.27614 26.082 7V6.53347C26.082 6.45906 26.0015 6.41256 25.937 6.44976L25.533 6.68304C25.2938 6.82111 24.988 6.73918 24.85 6.50003V6.50003C24.7119 6.26088 24.7938 5.95509 25.033 5.81702L25.437 5.58374C25.5015 5.54653 25.5015 5.45353 25.437 5.41632L25.033 5.18304C24.7938 5.04497 24.7119 4.73918 24.85 4.50003V4.50003C24.988 4.26088 25.2938 4.17895 25.533 4.31702L25.937 4.55029C26.0015 4.5875 26.082 4.54099 26.082 4.46659V4Z" fill="white"/>
</svg>
