<svg width="32" height="18" viewBox="0 0 32 18" fill="none" xmlns="http://www.w3.org/2000/svg">
<path fill-rule="evenodd" clip-rule="evenodd" d="M8 2H3C2.44772 2 2 2.44772 2 3V8C2 8.55228 2.44772 9 3 9H8C8.55228 9 9 8.55228 9 8V3C9 2.44772 8.55228 2 8 2ZM3 1C1.89543 1 1 1.89543 1 3V8C1 9.10457 1.89543 10 3 10H8C9.10457 10 10 9.10457 10 8V3C10 1.89543 9.10457 1 8 1H3Z" fill="white"/>
<path fill-rule="evenodd" clip-rule="evenodd" d="M18.5 2H13.5C12.9477 2 12.5 2.44772 12.5 3V8C12.5 8.55228 12.9477 9 13.5 9H18.5C19.0523 9 19.5 8.55228 19.5 8V3C19.5 2.44772 19.0523 2 18.5 2ZM13.5 1C12.3954 1 11.5 1.89543 11.5 3V8C11.5 9.10457 12.3954 10 13.5 10H18.5C19.6046 10 20.5 9.10457 20.5 8V3C20.5 1.89543 19.6046 1 18.5 1H13.5Z" fill="white"/>
<path fill-rule="evenodd" clip-rule="evenodd" d="M29 2H24C23.4477 2 23 2.44772 23 3V8C23 8.55228 23.4477 9 24 9H29C29.5523 9 30 8.55228 30 8V3C30 2.44772 29.5523 2 29 2ZM24 1C22.8954 1 22 1.89543 22 3V8C22 9.10457 22.8954 10 24 10H29C30.1046 10 31 9.10457 31 8V3C31 1.89543 30.1046 1 29 1H24Z" fill="white"/>
<path d="M5.49999 4.5C6.00918 4.5 6.43202 4.14088 6.51476 3.66916C6.53097 3.57671 6.60551 3.5 6.69937 3.5V3.5C6.92046 3.5 7.13284 3.58617 7.29143 3.74022L8.5 4.91421L7.40811 5.97487L7.21381 5.78612C7.15041 5.72453 7.04413 5.76946 7.04413 5.85785V7.5H3.95582V5.8579C3.95582 5.76951 3.84954 5.72458 3.78614 5.78617L3.59188 5.97487L2.5 4.91421L3.70852 3.74025C3.86711 3.5862 4.07949 3.50002 4.30058 3.50001V3.50001C4.39445 3.5 4.469 3.57672 4.48522 3.66918C4.56796 4.14089 4.9908 4.5 5.49999 4.5Z" fill="white"/>
<path d="M16 4.5C16.5092 4.5 16.932 4.14088 17.0148 3.66916C17.031 3.57671 17.1055 3.5 17.1994 3.5V3.5C17.4205 3.5 17.6328 3.58617 17.7914 3.74022L19 4.91421L17.9081 5.97487L17.7138 5.78612C17.6504 5.72453 17.5441 5.76946 17.5441 5.85785V7.5H14.4558V5.8579C14.4558 5.76951 14.3495 5.72458 14.2861 5.78617L14.0919 5.97487L13 4.91421L14.2085 3.74025C14.3671 3.5862 14.5795 3.50002 14.8006 3.50001V3.50001C14.8945 3.5 14.969 3.57672 14.9852 3.66918C15.068 4.14089 15.4908 4.5 16 4.5Z" fill="white"/>
<path d="M26.5 4.5C27.0092 4.5 27.432 4.14088 27.5148 3.66916C27.531 3.57671 27.6055 3.5 27.6994 3.5V3.5C27.9205 3.5 28.1328 3.58617 28.2914 3.74022L29.5 4.91421L28.4081 5.97487L28.2138 5.78612C28.1504 5.72453 28.0441 5.76946 28.0441 5.85785V7.5H24.9558V5.8579C24.9558 5.76951 24.8495 5.72458 24.7861 5.78617L24.5919 5.97487L23.5 4.91421L24.7085 3.74025C24.8671 3.5862 25.0795 3.50002 25.3006 3.50001V3.50001C25.3945 3.5 25.469 3.57672 25.4852 3.66918C25.568 4.14089 25.9908 4.5 26.5 4.5Z" fill="white"/>
<rect x="1" y="12" width="9" height="1" rx="0.5" fill="white"/>
<rect x="1" y="15" width="6" height="1" rx="0.5" fill="white"/>
<rect x="11.5" y="15" width="4" height="1" rx="0.5" fill="white"/>
<rect x="22" y="15" width="7" height="1" rx="0.5" fill="white"/>
<rect x="11.5" y="12" width="9" height="1" rx="0.5" fill="white"/>
<rect x="22" y="12" width="9" height="1" rx="0.5" fill="white"/>
</svg>
