<svg width="32" height="18" viewBox="0 0 32 18" fill="none" xmlns="http://www.w3.org/2000/svg">
<rect x="1" y="14" width="13" height="1" rx="0.5" fill="white"/>
<rect x="16" y="14" width="6" height="1" rx="0.5" fill="white"/>
<rect x="24" y="14" width="7" height="1" rx="0.5" fill="white"/>
<path d="M14 6.5C13.7239 6.5 13.5 6.72386 13.5 7C13.5 7.27614 13.7239 7.5 14 7.5H18C18.2761 7.5 18.5 7.27614 18.5 7C18.5 6.72386 18.2761 6.5 18 6.5H14Z" fill="white"/>
<path fill-rule="evenodd" clip-rule="evenodd" d="M10 4C10 4.55228 10.4477 5 11 5V11C11 11.5523 11.4477 12 12 12H20C20.5523 12 21 11.5523 21 11V5C21.5523 5 22 4.55228 22 4V2C22 1.44772 21.5523 1 21 1H11C10.4477 1 10 1.44772 10 2V4ZM21 2H11V4H21V2ZM12 5H20V11H12V5Z" fill="white"/>
</svg>
