<svg width="32" height="18" viewBox="0 0 32 18" fill="none" xmlns="http://www.w3.org/2000/svg">
<path fill-rule="evenodd" clip-rule="evenodd" d="M18.99 12.03C19.39 11.6633 19.59 11.2167 19.59 10.69C19.59 10.2633 19.48 9.92334 19.26 9.67001C19.0467 9.41001 18.7833 9.21667 18.47 9.09001C18.2075 8.9783 17.8842 8.87128 17.5 8.76893V6.40077C17.8486 6.44428 18.1877 6.54197 18.5175 6.69384C18.7621 6.80651 19.0639 6.71242 19.1666 6.46346C19.2444 6.27466 19.1815 6.05419 19.0002 5.96009C18.8106 5.86169 18.6006 5.77832 18.37 5.71C18.0885 5.62501 17.7985 5.56965 17.5 5.54391V5.5C17.5 5.22386 17.2761 5 17 5C16.9907 5 16.9814 5.00026 16.9722 5.00076C16.9649 5.00026 16.9575 5 16.95 5C16.8818 5 16.8187 5.0213 16.7668 5.05761C16.6081 5.14143 16.5 5.30809 16.5 5.5V5.55232C15.8237 5.62589 15.3037 5.83512 14.94 6.18C14.56 6.54667 14.37 6.99334 14.37 7.52001C14.37 7.94001 14.4733 8.28 14.68 8.54C14.8933 8.8 15.1533 8.99667 15.46 9.13001C15.7438 9.25076 16.0904 9.36332 16.5 9.46767V11.8093C16.1468 11.7745 15.8068 11.6948 15.48 11.57C15.3142 11.5037 15.1614 11.4299 15.0215 11.3486C14.7812 11.2089 14.4493 11.2744 14.3302 11.5255C14.2527 11.6888 14.2888 11.8862 14.4363 11.9905C14.659 12.1479 14.9268 12.2844 15.24 12.4C15.6406 12.5396 16.0606 12.6267 16.5 12.6613V12.8C16.5 13.0761 16.7238 13.3 17 13.3C17.2761 13.3 17.5 13.0761 17.5 12.8V12.6462C18.141 12.5638 18.6377 12.3584 18.99 12.03ZM17.5 11.7813C17.8329 11.7269 18.0896 11.6231 18.27 11.47C18.4967 11.2767 18.61 11.0367 18.61 10.75C18.61 10.4567 18.4933 10.2333 18.26 10.08C18.0753 9.94962 17.8219 9.83252 17.5 9.72869V11.7813ZM16.5 6.40908V8.51467C16.1497 8.41435 15.8763 8.2928 15.68 8.15C15.46 7.99 15.35 7.76667 15.35 7.48C15.35 7.2 15.4567 6.96334 15.67 6.77001C15.8611 6.59086 16.1377 6.47055 16.5 6.40908Z" fill="white"/>
<path d="M28.2422 8.17003C28.7022 8.17003 29.1122 8.25669 29.4722 8.43003C29.8388 8.60336 30.1255 8.85336 30.3322 9.18003C30.5388 9.50003 30.6422 9.87003 30.6422 10.29C30.6422 10.73 30.5322 11.1167 30.3122 11.45C30.0988 11.7834 29.8022 12.0434 29.4222 12.23C29.0488 12.41 28.6288 12.5 28.1622 12.5C27.2222 12.5 26.4955 12.1967 25.9822 11.59C25.4755 10.9834 25.2222 10.1234 25.2222 9.01003C25.2222 8.23003 25.3588 7.56669 25.6322 7.02003C25.9122 6.46669 26.2988 6.05003 26.7922 5.77003C27.2922 5.48336 27.8722 5.34003 28.5322 5.34003C28.8722 5.34003 29.1922 5.37669 29.4922 5.45003C29.6476 5.48456 29.7922 5.52803 29.9261 5.58044C30.1297 5.6601 30.1989 5.9004 30.1032 6.0969V6.0969C29.9914 6.32644 29.7008 6.40348 29.4578 6.32517C29.1989 6.24174 28.897 6.20003 28.5522 6.20003C27.8255 6.20003 27.2555 6.42669 26.8422 6.88003C26.4288 7.32669 26.2222 7.98003 26.2222 8.84003V8.84003C26.2222 8.92513 26.3282 8.95545 26.3845 8.89162C26.564 8.68804 26.7866 8.52751 27.0522 8.41003C27.4055 8.25003 27.8022 8.17003 28.2422 8.17003ZM28.1222 11.69C28.5822 11.69 28.9555 11.5667 29.2422 11.32C29.5288 11.0734 29.6722 10.7434 29.6722 10.33C29.6722 9.91669 29.5255 9.59003 29.2322 9.35003C28.9455 9.10336 28.5588 8.98003 28.0722 8.98003C27.7588 8.98003 27.4788 9.04003 27.2322 9.16003C26.9922 9.28003 26.8022 9.44336 26.6622 9.65003C26.5288 9.85669 26.4622 10.0867 26.4622 10.34C26.4622 10.5867 26.5255 10.8134 26.6522 11.02C26.7855 11.22 26.9755 11.3834 27.2222 11.51C27.4755 11.63 27.7755 11.69 28.1222 11.69Z" fill="white"/>
<path d="M22.5 7.20193L21.7206 7.95C21.5243 8.13841 21.2133 8.13522 21.0209 7.94283C20.8229 7.74477 20.8262 7.42264 21.0283 7.22869C21.4824 6.79282 22.7238 5.5 23 5.5C23.2761 5.5 23.5 5.72386 23.5 6V12C23.5 12.2761 23.2761 12.5 23 12.5C22.7238 12.5 22.5 12.2761 22.5 12V7.20193Z" fill="white"/>
<path fill-rule="evenodd" clip-rule="evenodd" d="M5.5 14C5.77614 14 6 13.7761 6 13.5C6 13.2239 5.77614 13 5.5 13C5.22386 13 5 13.2239 5 13.5C5 13.7761 5.22386 14 5.5 14ZM5.5 15C6.32843 15 7 14.3284 7 13.5C7 12.6716 6.32843 12 5.5 12C4.67157 12 4 12.6716 4 13.5C4 14.3284 4.67157 15 5.5 15Z" fill="white"/>
<path fill-rule="evenodd" clip-rule="evenodd" d="M10.5 14C10.7761 14 11 13.7761 11 13.5C11 13.2239 10.7761 13 10.5 13C10.2239 13 10 13.2239 10 13.5C10 13.7761 10.2239 14 10.5 14ZM10.5 15C11.3284 15 12 14.3284 12 13.5C12 12.6716 11.3284 12 10.5 12C9.67157 12 9 12.6716 9 13.5C9 14.3284 9.67157 15 10.5 15Z" fill="white"/>
<path fill-rule="evenodd" clip-rule="evenodd" d="M1 3.5C1 3.22386 1.22386 3 1.5 3H2.71812C3.1775 3 3.57773 3.31286 3.68883 3.7586C3.80741 4.23433 3.94748 4.79503 3.99999 4.99999L12.4098 5C12.7187 5 12.9538 5.27743 12.903 5.5822L12.0696 10.5822C12.0295 10.8233 11.8209 11 11.5764 11H4.42356C4.17914 11 3.97055 10.8233 3.93037 10.5822L2.78726 4.40896C2.74337 4.17196 2.53665 4 2.29561 4H1.5C1.22386 4 1 3.77614 1 3.5ZM4.59989 7.5C4.50212 7.5 4.41868 7.42932 4.40261 7.33288L4.21927 6.23288C4.19896 6.11097 4.29296 6 4.41655 6H7.3C7.41046 6 7.5 6.08954 7.5 6.2V7.3C7.5 7.41046 7.41046 7.5 7.3 7.5H4.59989ZM4.83322 8.5C4.70963 8.5 4.61562 8.61097 4.63594 8.73288L4.81927 9.83288C4.83535 9.92932 4.91878 10 5.01655 10H7.3C7.41046 10 7.5 9.91046 7.5 9.8V8.7C7.5 8.58954 7.41046 8.5 7.3 8.5H4.83322ZM8.7 8.5C8.58954 8.5 8.5 8.58954 8.5 8.7V9.8C8.5 9.91046 8.58954 10 8.7 10H10.9834C11.0812 10 11.1647 9.92932 11.1807 9.83288L11.3641 8.73288C11.3844 8.61097 11.2904 8.5 11.1668 8.5H8.7ZM11.4001 7.5C11.4979 7.5 11.5813 7.42932 11.5974 7.33288L11.7807 6.23288C11.801 6.11097 11.707 6 11.5834 6H8.7C8.58954 6 8.5 6.08954 8.5 6.2V7.3C8.5 7.41046 8.58954 7.5 8.7 7.5H11.4001Z" fill="white"/>
</svg>
