<svg width="32" height="18" viewBox="0 0 32 18" fill="none" xmlns="http://www.w3.org/2000/svg">
<path fill-rule="evenodd" clip-rule="evenodd" d="M12.5002 8.8753C12.7924 9.24052 12.7924 9.75948 12.5002 10.1247L11.3899 11.5126C11.2328 11.709 11.3726 12 11.6242 12H18.5194C18.8232 12 19.1105 11.8619 19.3002 11.6247L20.5002 10.1247C20.7924 9.75948 20.7924 9.24052 20.5002 8.8753L19.3002 7.3753C19.1105 7.13809 18.8232 7 18.5194 7H11.6242C11.3726 7 11.2328 7.29098 11.3899 7.48741L12.5002 8.8753ZM13.2887 8C13.2048 8 13.1582 8.09699 13.2106 8.16247L13.7809 8.8753C14.073 9.24052 14.073 9.75948 13.7809 10.1247L13.2106 10.8375C13.1582 10.903 13.2048 11 13.2887 11H18.0388C18.3425 11 18.6298 10.8619 18.8196 10.6247L19.2196 10.1247C19.5118 9.75948 19.5118 9.24052 19.2196 8.8753L18.8196 8.3753C18.6298 8.13809 18.3425 8 18.0388 8H13.2887Z" fill="white"/>
<path fill-rule="evenodd" clip-rule="evenodd" d="M2.50024 8.8753C2.79242 9.24052 2.79242 9.75948 2.50024 10.1247L1.38993 11.5126C1.23278 11.709 1.37264 12 1.62419 12H8.51938C8.82316 12 9.11047 11.8619 9.30024 11.6247L10.5002 10.1247C10.7924 9.75948 10.7924 9.24052 10.5002 8.8753L9.30024 7.3753C9.11047 7.13809 8.82316 7 8.51938 7H1.62419C1.37264 7 1.23278 7.29098 1.38993 7.48741L2.50024 8.8753ZM3.28869 8C3.20484 8 3.15822 8.09699 3.2106 8.16247L3.78087 8.8753C4.07304 9.24052 4.07304 9.75948 3.78087 10.1247L3.2106 10.8375C3.15822 10.903 3.20484 11 3.28869 11H8.03875C8.34253 11 8.62985 10.8619 8.81962 10.6247L9.21962 10.1247C9.51179 9.75948 9.51179 9.24052 9.21962 8.8753L8.81962 8.3753C8.62985 8.13809 8.34253 8 8.03875 8H3.28869Z" fill="white"/>
<path fill-rule="evenodd" clip-rule="evenodd" d="M22.5002 8.8753C22.7924 9.24052 22.7924 9.75948 22.5002 10.1247L21.3899 11.5126C21.2328 11.709 21.3726 12 21.6242 12H28.5194C28.8232 12 29.1105 11.8619 29.3002 11.6247L30.5002 10.1247C30.7924 9.75948 30.7924 9.24052 30.5002 8.8753L29.3002 7.3753C29.1105 7.13809 28.8232 7 28.5194 7H21.6242C21.3726 7 21.2328 7.29098 21.3899 7.48741L22.5002 8.8753ZM23.2887 8C23.2048 8 23.1582 8.09699 23.2106 8.16247L23.7809 8.8753C24.073 9.24052 24.073 9.75948 23.7809 10.1247L23.2106 10.8375C23.1582 10.903 23.2048 11 23.2887 11H28.0388C28.3425 11 28.6298 10.8619 28.8196 10.6247L29.2196 10.1247C29.5118 9.75948 29.5118 9.24052 29.2196 8.8753L28.8196 8.3753C28.6298 8.13809 28.3425 8 28.0388 8H23.2887Z" fill="white"/>
</svg>
