<svg width="60" height="32" viewBox="0 0 60 32" fill="none" xmlns="http://www.w3.org/2000/svg">
<path d="M5 7C5 5.89543 5.89543 5 7 5H36.5C36.7761 5 37 5.22386 37 5.5V26.5C37 26.7761 36.7761 27 36.5 27H7C5.89543 27 5 26.1046 5 25V7Z" fill="#5C5C5C"/>
<path d="M39 5.5C39 5.22386 39.2239 5 39.5 5H53C54.1046 5 55 5.89543 55 7V25C55 26.1046 54.1046 27 53 27H39.5C39.2239 27 39 26.7761 39 26.5V5.5Z" fill="#5C5C5C"/>
<path fill-rule="evenodd" clip-rule="evenodd" d="M12.9731 11.9136C14.2054 12.0806 14.8388 12.6332 14.8388 13.4171C14.8388 14.1238 14.1478 14.6764 14.1017 14.625C13.595 14.111 12.858 13.764 12.2015 13.764C11.5681 13.764 11.2802 13.9825 11.2802 14.368C11.2802 14.8049 11.8215 14.9077 12.547 15.0876C13.5259 15.3061 15 15.7815 15 17.4778C15 18.8271 14.286 19.7009 12.9616 19.9836V20.3049C12.9616 21.0888 12.6967 21.5 12.0633 21.5H12.0058C11.3493 21.5 11.1075 21.1145 11.1075 20.3049V20.0479C9.73704 19.8808 9 19.2769 9 18.4544C9 17.7862 9.64491 17.2465 9.69098 17.3107C10.1631 17.7734 11.0499 18.1974 11.81 18.1974C12.4664 18.1974 12.7658 17.9918 12.7658 17.5935C12.7658 17.1437 12.2246 17.028 11.5451 16.861C10.6008 16.6425 9.16123 16.2056 9.16123 14.4322C9.16123 13.1472 9.87524 12.2734 11.119 11.9778V11.6951C11.119 10.9112 11.3839 10.5 12.0173 10.5H12.0749C12.7313 10.5 12.9731 10.8855 12.9731 11.6951V11.9136Z" fill="#A1A1A1"/>
<path fill-rule="evenodd" clip-rule="evenodd" d="M26.5924 15.2248C26.4206 15.7898 26.9612 16.3259 27.428 15.9641C27.5597 15.862 27.6624 15.7484 27.7077 15.6256L29.8185 9.90077C30.0179 9.35999 30.539 9 31.1225 9H33.4115C33.7947 9 34.1053 9.30633 34.1053 9.68421C34.1053 10.0621 33.7947 10.3684 33.4115 10.3684H32.0943C31.5 10.3684 31 10.5 30.7903 11.2692L28.6796 16.994C28.4802 17.5348 27.9591 17.8948 27.3756 17.8948H19.3589C19.0526 17.8948 18.7825 17.6966 18.6944 17.4072L17.0294 11.9335C16.9193 11.5715 17.1276 11.1901 17.4946 11.0815C17.5593 11.0624 17.6264 11.0526 17.6939 11.0526H26.9291C27.3123 11.0526 27.6229 11.359 27.6229 11.7368C27.6229 11.8034 27.613 11.8697 27.5936 11.9335L26.5924 15.2248ZM22.3115 20.6105C22.3115 21.5552 21.535 22.3211 20.5771 22.3211C19.6193 22.3211 18.8428 21.5552 18.8428 20.6105C18.8428 19.6658 19.6193 18.9 20.5771 18.9C21.535 18.9 22.3115 19.6658 22.3115 20.6105ZM26.1272 22.3211C27.085 22.3211 27.8615 21.5552 27.8615 20.6105C27.8615 19.6658 27.085 18.9 26.1272 18.9C25.1693 18.9 24.3928 19.6658 24.3928 20.6105C24.3928 21.5552 25.1693 22.3211 26.1272 22.3211Z" fill="#A1A1A1"/>
<path d="M43.2559 15.2939C42.8372 14.8795 42.8304 14.2053 43.2407 13.7825V13.7825C43.6582 13.3523 44.3471 13.3471 44.771 13.771L46.6464 15.6464C46.8417 15.8417 47.1583 15.8417 47.3536 15.6464L49.229 13.771C49.6529 13.3471 50.3418 13.3523 50.7593 13.7825V13.7825C51.1696 14.2053 51.1628 14.8795 50.7441 15.2939L47.7035 18.3037C47.3138 18.6894 46.6862 18.6894 46.2965 18.3037L43.2559 15.2939Z" fill="#A1A1A1"/>
</svg>
