<svg width="32" height="18" viewBox="0 0 32 18" fill="none" xmlns="http://www.w3.org/2000/svg">
<path fill-rule="evenodd" clip-rule="evenodd" d="M13.5 14C13.7761 14 14 13.7761 14 13.5C14 13.2239 13.7761 13 13.5 13C13.2239 13 13 13.2239 13 13.5C13 13.7761 13.2239 14 13.5 14ZM13.5 15C14.3284 15 15 14.3284 15 13.5C15 12.6716 14.3284 12 13.5 12C12.6716 12 12 12.6716 12 13.5C12 14.3284 12.6716 15 13.5 15Z" fill="white"/>
<path fill-rule="evenodd" clip-rule="evenodd" d="M18.5 14C18.7761 14 19 13.7761 19 13.5C19 13.2239 18.7761 13 18.5 13C18.2239 13 18 13.2239 18 13.5C18 13.7761 18.2239 14 18.5 14ZM18.5 15C19.3284 15 20 14.3284 20 13.5C20 12.6716 19.3284 12 18.5 12C17.6716 12 17 12.6716 17 13.5C17 14.3284 17.6716 15 18.5 15Z" fill="white"/>
<path fill-rule="evenodd" clip-rule="evenodd" d="M9 3.5C9 3.22386 9.22386 3 9.5 3H10.7181C11.1775 3 11.5777 3.31286 11.6888 3.7586C11.8074 4.23433 11.9475 4.79503 12 4.99999L20.4098 5C20.7187 5 20.9538 5.27743 20.903 5.5822L20.0696 10.5822C20.0295 10.8233 19.8209 11 19.5764 11H12.4236C12.1791 11 11.9705 10.8233 11.9304 10.5822L10.7873 4.40896C10.7434 4.17196 10.5366 4 10.2956 4H9.5C9.22386 4 9 3.77614 9 3.5ZM12.5999 7.5C12.5021 7.5 12.4187 7.42932 12.4026 7.33288L12.2193 6.23288C12.199 6.11097 12.293 6 12.4166 6H15.3C15.4105 6 15.5 6.08954 15.5 6.2V7.3C15.5 7.41046 15.4105 7.5 15.3 7.5H12.5999ZM12.8332 8.5C12.7096 8.5 12.6156 8.61097 12.6359 8.73288L12.8193 9.83288C12.8353 9.92932 12.9188 10 13.0166 10H15.3C15.4105 10 15.5 9.91046 15.5 9.8V8.7C15.5 8.58954 15.4105 8.5 15.3 8.5H12.8332ZM16.7 8.5C16.5895 8.5 16.5 8.58954 16.5 8.7V9.8C16.5 9.91046 16.5895 10 16.7 10H18.9834C19.0812 10 19.1647 9.92932 19.1807 9.83288L19.3641 8.73288C19.3844 8.61097 19.2904 8.5 19.1668 8.5H16.7ZM19.4001 7.5C19.4979 7.5 19.5813 7.42932 19.5974 7.33288L19.7807 6.23288C19.801 6.11097 19.707 6 19.5834 6H16.7C16.5895 6 16.5 6.08954 16.5 6.2V7.3C16.5 7.41046 16.5895 7.5 16.7 7.5H19.4001Z" fill="white"/>
<path fill-rule="evenodd" clip-rule="evenodd" d="M29 2H3C2.44772 2 2 2.44772 2 3V15C2 15.5523 2.44772 16 3 16H29C29.5523 16 30 15.5523 30 15V3C30 2.44772 29.5523 2 29 2ZM3 1C1.89543 1 1 1.89543 1 3V15C1 16.1046 1.89543 17 3 17H29C30.1046 17 31 16.1046 31 15V3C31 1.89543 30.1046 1 29 1H3Z" fill="white"/>
</svg>
