<svg width="32" height="18" viewBox="0 0 32 18" fill="none" xmlns="http://www.w3.org/2000/svg">
<rect x="15" y="1" width="16" height="1" rx="0.5" fill="white"/>
<rect x="15" y="11" width="9" height="1" rx="0.5" fill="white"/>
<rect x="15" y="6" width="4" height="1" rx="0.5" fill="white"/>
<rect x="26" y="11" width="4" height="1" rx="0.5" fill="white"/>
<rect x="21" y="6" width="7" height="1" rx="0.5" fill="white"/>
<rect x="15" y="16" width="7" height="1" rx="0.5" fill="white"/>
<path fill-rule="evenodd" clip-rule="evenodd" d="M12 2.5C12 2.22386 11.7761 2 11.5 2H2.5C2.22386 2 2 2.22386 2 2.5L2 4C2 4.27614 2.22386 4.5 2.5 4.5H11.5C11.7761 4.5 12 4.27614 12 4V2.5ZM2 1C1.44772 1 1 1.44772 1 2V4.5C1 5.05228 1.44772 5.5 2 5.5H12C12.5523 5.5 13 5.05228 13 4.5V2C13 1.44772 12.5523 1 12 1H2Z" fill="white"/>
<path fill-rule="evenodd" clip-rule="evenodd" d="M12 8.25C12 7.97386 11.7761 7.75 11.5 7.75H2.5C2.22386 7.75 2 7.97386 2 8.25L2 9.75C2 10.0261 2.22386 10.25 2.5 10.25H11.5C11.7761 10.25 12 10.0261 12 9.75V8.25ZM2 6.75C1.44772 6.75 1 7.19772 1 7.75V10.25C1 10.8023 1.44772 11.25 2 11.25H12C12.5523 11.25 13 10.8023 13 10.25V7.75C13 7.19772 12.5523 6.75 12 6.75H2Z" fill="white"/>
<path fill-rule="evenodd" clip-rule="evenodd" d="M12 14C12 13.7239 11.7761 13.5 11.5 13.5H2.5C2.22386 13.5 2 13.7239 2 14L2 15.5C2 15.7761 2.22386 16 2.5 16H11.5C11.7761 16 12 15.7761 12 15.5V14ZM2 12.5C1.44772 12.5 1 12.9477 1 13.5V16C1 16.5523 1.44772 17 2 17H12C12.5523 17 13 16.5523 13 16V13.5C13 12.9477 12.5523 12.5 12 12.5H2Z" fill="white"/>
<rect x="4" y="2.75" width="6" height="1" rx="0.5" fill="white"/>
<rect x="4" y="8.5" width="6" height="1" rx="0.5" fill="white"/>
<rect x="4" y="14.25" width="6" height="1" rx="0.5" fill="white"/>
</svg>
