<svg width="32" height="18" viewBox="0 0 32 18" fill="none" xmlns="http://www.w3.org/2000/svg">
<path fill-rule="evenodd" clip-rule="evenodd" d="M29 2H3C2.44772 2 2 2.44772 2 3V3.5C2 4.05228 2.44772 4.5 3 4.5H29C29.5523 4.5 30 4.05228 30 3.5V3C30 2.44772 29.5523 2 29 2ZM3 1C1.89543 1 1 1.89543 1 3V3.5C1 4.60457 1.89543 5.5 3 5.5H29C30.1046 5.5 31 4.60457 31 3.5V3C31 1.89543 30.1046 1 29 1H3Z" fill="white"/>
<path fill-rule="evenodd" clip-rule="evenodd" d="M29 7.5H3C2.44772 7.5 2 7.94772 2 8.5V9C2 9.55228 2.44772 10 3 10H29C29.5523 10 30 9.55228 30 9V8.5C30 7.94772 29.5523 7.5 29 7.5ZM3 6.5C1.89543 6.5 1 7.39543 1 8.5V9C1 10.1046 1.89543 11 3 11H29C30.1046 11 31 10.1046 31 9V8.5C31 7.39543 30.1046 6.5 29 6.5H3Z" fill="white"/>
<path fill-rule="evenodd" clip-rule="evenodd" d="M29 13H17C16.4477 13 16 13.4477 16 14V15C16 15.5523 16.4477 16 17 16H29C29.5523 16 30 15.5523 30 15V14C30 13.4477 29.5523 13 29 13ZM17 12C15.8954 12 15 12.8954 15 14V15C15 16.1046 15.8954 17 17 17H29C30.1046 17 31 16.1046 31 15V14C31 12.8954 30.1046 12 29 12H17Z" fill="white"/>
<rect x="18" y="14" width="10" height="1" rx="0.5" fill="white"/>
</svg>
