<svg width="32" height="18" viewBox="0 0 32 18" fill="none" xmlns="http://www.w3.org/2000/svg">
<path d="M13.7416 4.61375C13.8698 4.38129 13.801 4.08285 13.5712 3.95014L13.341 3.81723C13.064 3.65732 12.7101 3.79497 12.6141 4.10003C12.4224 4.70845 11.8535 5.14869 11.183 5.14869C10.5126 5.14869 9.94361 4.70845 9.75196 4.10003C9.65588 3.79497 9.30204 3.65732 9.02506 3.81723L5 6.1411L7 9.60521L8.18301 8.92219V13.6487H14.183V11.7459C14.183 11.3158 14.0349 10.9026 13.8177 10.5314C13.6707 10.2803 13.5415 10.0175 13.4318 9.74482C13.3878 9.63558 13.183 9.6672 13.183 9.78495V12.6487H9.18301V8.05617C9.18301 7.67127 8.76635 7.4307 8.43301 7.62315L7.36602 8.23918L6.36603 6.50713L9.05203 4.95636C9.49171 5.67143 10.2812 6.14869 11.183 6.14869C12.0848 6.14869 12.8743 5.67143 13.314 4.95636V4.95636C13.4209 5.01811 13.5575 4.97342 13.612 4.86259C13.6533 4.77852 13.6966 4.69555 13.7416 4.61375Z" fill="white"/>
<path fill-rule="evenodd" clip-rule="evenodd" d="M22.4844 11.6915C22.3027 11.5098 22.0144 11.4978 21.8017 11.6419C21.0025 12.1836 20.0382 12.5 19 12.5C16.2386 12.5 14 10.2614 14 7.5C14 4.73858 16.2386 2.5 19 2.5C21.7614 2.5 24 4.73858 24 7.5C24 8.5382 23.6836 9.5025 23.1419 10.3017C22.9978 10.5144 23.0098 10.8027 23.1915 10.9844L26.4948 14.2877C26.69 14.4829 26.69 14.7995 26.4948 14.9948C26.2995 15.19 25.9829 15.19 25.7877 14.9948L22.4844 11.6915ZM23 7.5C23 9.70914 21.2091 11.5 19 11.5C16.7909 11.5 15 9.70914 15 7.5C15 5.29086 16.7909 3.5 19 3.5C21.2091 3.5 23 5.29086 23 7.5Z" fill="white"/>
</svg>
