<svg width="32" height="18" viewBox="0 0 32 18" fill="none" xmlns="http://www.w3.org/2000/svg">
<path fill-rule="evenodd" clip-rule="evenodd" d="M17.5 2H5.5C4.94772 2 4.5 2.44772 4.5 3V15C4.5 15.5523 4.94772 16 5.5 16H17.5C18.0523 16 18.5 15.5523 18.5 15V3C18.5 2.44772 18.0523 2 17.5 2ZM5.5 1C4.39543 1 3.5 1.89543 3.5 3V15C3.5 16.1046 4.39543 17 5.5 17H17.5C18.6046 17 19.5 16.1046 19.5 15V3C19.5 1.89543 18.6046 1 17.5 1H5.5Z" fill="white"/>
<path fill-rule="evenodd" clip-rule="evenodd" d="M12.9311 4.34978C13.0272 4.04473 13.381 3.90707 13.658 4.06699L17.7452 6.42676L15.7452 9.89086L14.5 9.17195V13.8984H8.50003V9.17195L7.31702 9.85496L5.31702 6.39086L9.34208 4.06699C9.61906 3.90707 9.97289 4.04473 10.069 4.34978C10.2606 4.9582 10.8296 5.39844 11.5 5.39844C12.1705 5.39844 12.7394 4.9582 12.9311 4.34978ZM6.68304 6.75688L7.68304 8.48893L8.75003 7.87291C9.08336 7.68046 9.50003 7.92102 9.50003 8.30592V12.8984H13.5V8.30592C13.5 7.92102 13.9167 7.68046 14.25 7.87291L15.3792 8.52483L16.3792 6.79278L13.631 5.20612C13.1913 5.92118 12.4018 6.39844 11.5 6.39844C10.5982 6.39844 9.80873 5.92118 9.36905 5.20612L6.68304 6.75688Z" fill="white"/>
<path fill-rule="evenodd" clip-rule="evenodd" d="M21.5 3C21.5 1.89543 22.3954 1 23.5 1H26.5C27.6046 1 28.5 1.89543 28.5 3V6C28.5 7.10457 27.6046 8 26.5 8H23.5C22.3954 8 21.5 7.10457 21.5 6V3ZM23.5 2H26.5C27.0523 2 27.5 2.44772 27.5 3V4.40125C27.2648 4.55423 26.9842 4.64304 26.683 4.64304C26.0126 4.64304 25.4436 4.2028 25.252 3.59438C25.1559 3.28933 24.802 3.15167 24.5251 3.31159L22.5 4.48076V3C22.5 2.44772 22.9477 2 23.5 2ZM22.5 5.63546V6C22.5 6.55228 22.9477 7 23.5 7H26.5C27.0523 7 27.5 6.55228 27.5 6V5.50652C27.244 5.59498 26.9692 5.64304 26.683 5.64304C25.7812 5.64304 24.9917 5.16578 24.552 4.45072L22.5 5.63546Z" fill="white"/>
<path fill-rule="evenodd" clip-rule="evenodd" d="M21.5 12C21.5 10.8954 22.3954 10 23.5 10H26.5C27.6046 10 28.5 10.8954 28.5 12V15C28.5 16.1046 27.6046 17 26.5 17H23.5C22.3954 17 21.5 16.1046 21.5 15V12ZM23.5 11H24.9667L23 12.1355L25 15.5996L26.183 14.9165V16H23.5C22.9477 16 22.5 15.5523 22.5 15V12C22.5 11.4477 22.9477 11 23.5 11ZM27.183 15.7304C27.3781 15.5479 27.5 15.2882 27.5 15V12C27.5 11.5726 27.2319 11.2078 26.8546 11.0647L24.366 12.5015L25.366 14.2335L26.433 13.6175C26.7663 13.4251 27.183 13.6656 27.183 14.0505V15.7304Z" fill="white"/>
</svg>
