<svg width="32" height="18" viewBox="0 0 32 18" fill="none" xmlns="http://www.w3.org/2000/svg">
<path fill-rule="evenodd" clip-rule="evenodd" d="M10.6141 4.59438C10.7101 4.28933 11.064 4.15167 11.341 4.31158L15.4282 6.67135L13.4282 10.1355L12.183 9.41654V14.143H6.18301V9.41654L5 10.0996L3 6.63546L7.02506 4.31158C7.30204 4.15167 7.65588 4.28933 7.75196 4.59438C7.94361 5.2028 8.51255 5.64304 9.18301 5.64304C9.85347 5.64304 10.4224 5.2028 10.6141 4.59438ZM4.36603 7.00148L5.36602 8.73353L6.43301 8.11751C6.76635 7.92506 7.18301 8.16562 7.18301 8.55052V13.143H11.183V8.55052C11.183 8.16562 11.5997 7.92506 11.933 8.11751L13.0622 8.76943L14.0622 7.03738L11.314 5.45071C10.8743 6.16578 10.0848 6.64304 9.18301 6.64304C8.2812 6.64304 7.49171 6.16578 7.05203 5.45071L4.36603 7.00148Z" fill="white"/>
<path fill-rule="evenodd" clip-rule="evenodd" d="M23 14C25.7614 14 28 11.7614 28 9C28 6.23858 25.7614 4 23 4C20.2386 4 18 6.23858 18 9C18 11.7614 20.2386 14 23 14ZM23 15C26.3137 15 29 12.3137 29 9C29 5.68629 26.3137 3 23 3C19.6863 3 17 5.68629 17 9C17 12.3137 19.6863 15 23 15Z" fill="white"/>
<path d="M23.75 6.25C23.75 6.66421 23.4142 7 23 7C22.5858 7 22.25 6.66421 22.25 6.25C22.25 5.83579 22.5858 5.5 23 5.5C23.4142 5.5 23.75 5.83579 23.75 6.25Z" fill="white"/>
<rect x="22.5" y="8" width="1" height="4" rx="0.5" fill="white"/>
</svg>
