<svg width="32" height="18" viewBox="0 0 32 18" fill="none" xmlns="http://www.w3.org/2000/svg">
<path fill-rule="evenodd" clip-rule="evenodd" d="M23.1841 4.59438C23.2802 4.28933 23.634 4.15167 23.911 4.31158L27.9982 6.67135L25.9982 10.1355L24.753 9.41654V14.143H18.753V9.41654L17.57 10.0996L15.57 6.63546L19.5951 4.31158C19.8721 4.15167 20.2259 4.28933 20.322 4.59438V4.59438C20.5136 5.2028 21.0826 5.64304 21.753 5.64304C22.4235 5.64304 22.9924 5.2028 23.1841 4.59438V4.59438ZM16.936 7.00148L17.936 8.73353L19.003 8.11751C19.3364 7.92506 19.753 8.16562 19.753 8.55052V13.143H23.753V8.55052C23.753 8.16562 24.1697 7.92506 24.503 8.11751L25.6322 8.76943L26.6322 7.03738L23.884 5.45071C23.4443 6.16578 22.6548 6.64304 21.753 6.64304C20.8512 6.64304 20.0617 6.16578 19.622 5.45071L16.936 7.00148Z" fill="white"/>
<path fill-rule="evenodd" clip-rule="evenodd" d="M12 5H6C5.44772 5 5 5.44772 5 6V12C5 12.5523 5.44772 13 6 13H12C12.5523 13 13 12.5523 13 12V6C13 5.44772 12.5523 5 12 5ZM6 4C4.89543 4 4 4.89543 4 6V12C4 13.1046 4.89543 14 6 14H12C13.1046 14 14 13.1046 14 12V6C14 4.89543 13.1046 4 12 4H6Z" fill="white"/>
<path d="M11.6464 7.90817C11.8417 7.71291 11.8417 7.39632 11.6464 7.20106V7.20106C11.4512 7.0058 11.1346 7.0058 10.9393 7.20106L8.46723 9.67313C8.38912 9.75124 8.26249 9.75124 8.18439 9.67313L7.13186 8.6206C6.9366 8.42533 6.62002 8.42533 6.42476 8.62059V8.62059C6.22949 8.81586 6.22949 9.13244 6.42475 9.3277L7.97225 10.8752C8.16752 11.0705 8.4841 11.0705 8.67936 10.8752L11.6464 7.90817Z" fill="white"/>
</svg>
