<svg width="32" height="18" viewBox="0 0 32 18" fill="none" xmlns="http://www.w3.org/2000/svg">
<path fill-rule="evenodd" clip-rule="evenodd" d="M12.6141 4.59438C12.7101 4.28933 13.064 4.15167 13.341 4.31158L17.4282 6.67135L15.4282 10.1355L14.183 9.41654V14.143H8.18301V9.41654L7 10.0996L5 6.63546L9.02506 4.31158C9.30204 4.15167 9.65588 4.28933 9.75196 4.59438V4.59438C9.94361 5.2028 10.5126 5.64304 11.183 5.64304C11.8535 5.64304 12.4224 5.2028 12.6141 4.59438V4.59438ZM6.36603 7.00148L7.36602 8.73353L8.43301 8.11751C8.76635 7.92506 9.18301 8.16562 9.18301 8.55052V13.143H13.183V8.55052C13.183 8.16562 13.5997 7.92506 13.933 8.11751L15.0622 8.76943L16.0622 7.03738L13.314 5.45071C12.8743 6.16578 12.0848 6.64304 11.183 6.64304C10.2812 6.64304 9.49171 6.16578 9.05203 5.45071L6.36603 7.00148Z" fill="white"/>
<path fill-rule="evenodd" clip-rule="evenodd" d="M24.8915 2H3C2.44772 2 2 2.44772 2 3V15C2 15.5523 2.44772 16 3 16H24.8915C25.2363 16 25.5568 15.8224 25.7395 15.53L29.4895 9.53C29.6922 9.20573 29.6922 8.79427 29.4895 8.47L25.7395 2.47C25.5568 2.17762 25.2363 2 24.8915 2ZM3 1C1.89543 1 1 1.89543 1 3V15C1 16.1046 1.89543 17 3 17H24.8915C25.5811 17 26.222 16.6448 26.5875 16.06L30.3375 10.06C30.7428 9.41146 30.7428 8.58854 30.3375 7.94L26.5875 1.94C26.222 1.35524 25.5811 1 24.8915 1H3Z" fill="white"/>
<path fill-rule="evenodd" clip-rule="evenodd" d="M23.5 10.5C24.3284 10.5 25 9.82843 25 9C25 8.17157 24.3284 7.5 23.5 7.5C22.6716 7.5 22 8.17157 22 9C22 9.82843 22.6716 10.5 23.5 10.5ZM23.5 11.5C24.8807 11.5 26 10.3807 26 9C26 7.61929 24.8807 6.5 23.5 6.5C22.1193 6.5 21 7.61929 21 9C21 10.3807 22.1193 11.5 23.5 11.5Z" fill="white"/>
</svg>
