<svg width="32" height="18" viewBox="0 0 32 18" fill="none" xmlns="http://www.w3.org/2000/svg">
<path fill-rule="evenodd" clip-rule="evenodd" d="M15 2H3C2.44772 2 2 2.44772 2 3V15C2 15.5523 2.44772 16 3 16H15C15.5523 16 16 15.5523 16 15V3C16 2.44772 15.5523 2 15 2ZM3 1C1.89543 1 1 1.89543 1 3V15C1 16.1046 1.89543 17 3 17H15C16.1046 17 17 16.1046 17 15V3C17 1.89543 16.1046 1 15 1H3Z" fill="white"/>
<rect x="19" y="2" width="7" height="1" rx="0.5" fill="white"/>
<rect x="19" y="9" width="7" height="1" rx="0.5" fill="white"/>
<rect x="19" y="5.5" width="4" height="1" rx="0.5" fill="white"/>
<rect x="25" y="5.5" width="6" height="1" rx="0.5" fill="white"/>
<rect x="28" y="2" width="3" height="1" rx="0.5" fill="white"/>
<path fill-rule="evenodd" clip-rule="evenodd" d="M30 13.2C30 13.0895 29.9105 13 29.8 13H20.2C20.0895 13 20 13.0895 20 13.2L20 15.8C20 15.9105 20.0895 16 20.2 16H29.8C29.9105 16 30 15.9105 30 15.8V13.2ZM20 12C19.4477 12 19 12.4477 19 13V16C19 16.5523 19.4477 17 20 17H30C30.5523 17 31 16.5523 31 16V13C31 12.4477 30.5523 12 30 12H20Z" fill="white"/>
<rect x="22" y="14" width="6" height="1" rx="0.5" fill="white"/>
<path fill-rule="evenodd" clip-rule="evenodd" d="M10.4311 4.34978C10.5272 4.04473 10.881 3.90707 11.158 4.06699L15.2452 6.42676L13.2452 9.89086L12 9.17195V13.8984H6.00003V9.17195L4.81702 9.85496L2.81702 6.39086L6.84208 4.06699C7.11906 3.90707 7.47289 4.04473 7.56898 4.34978C7.76062 4.9582 8.32957 5.39844 9.00003 5.39844C9.67049 5.39844 10.2394 4.9582 10.4311 4.34978ZM4.18304 6.75688L5.18304 8.48893L6.25003 7.87291C6.58336 7.68046 7.00003 7.92102 7.00003 8.30592V12.8984H11V8.30592C11 7.92102 11.4167 7.68046 11.75 7.87291L12.8792 8.52483L13.8792 6.79278L11.131 5.20612C10.6913 5.92118 9.90184 6.39844 9.00003 6.39844C8.09822 6.39844 7.30873 5.92118 6.86905 5.20612L4.18304 6.75688Z" fill="white"/>
</svg>
