<svg width="32" height="18" viewBox="0 0 32 18" fill="none" xmlns="http://www.w3.org/2000/svg">
<path fill-rule="evenodd" clip-rule="evenodd" d="M8 9H3C2.44772 9 2 9.44772 2 10V15C2 15.5523 2.44772 16 3 16H8C8.55228 16 9 15.5523 9 15V10C9 9.44772 8.55228 9 8 9ZM3 8C1.89543 8 1 8.89543 1 10V15C1 16.1046 1.89543 17 3 17H8C9.10457 17 10 16.1046 10 15V10C10 8.89543 9.10457 8 8 8H3Z" fill="white"/>
<path fill-rule="evenodd" clip-rule="evenodd" d="M18.5 9H13.5C12.9477 9 12.5 9.44772 12.5 10V15C12.5 15.5523 12.9477 16 13.5 16H18.5C19.0523 16 19.5 15.5523 19.5 15V10C19.5 9.44772 19.0523 9 18.5 9ZM13.5 8C12.3954 8 11.5 8.89543 11.5 10V15C11.5 16.1046 12.3954 17 13.5 17H18.5C19.6046 17 20.5 16.1046 20.5 15V10C20.5 8.89543 19.6046 8 18.5 8H13.5Z" fill="white"/>
<path fill-rule="evenodd" clip-rule="evenodd" d="M29 9H24C23.4477 9 23 9.44772 23 10V15C23 15.5523 23.4477 16 24 16H29C29.5523 16 30 15.5523 30 15V10C30 9.44772 29.5523 9 29 9ZM24 8C22.8954 8 22 8.89543 22 10V15C22 16.1046 22.8954 17 24 17H29C30.1046 17 31 16.1046 31 15V10C31 8.89543 30.1046 8 29 8H24Z" fill="white"/>
<path d="M5.49999 11.5C6.00918 11.5 6.43202 11.1409 6.51476 10.6692C6.53097 10.5767 6.60551 10.5 6.69937 10.5V10.5C6.92046 10.5 7.13284 10.5862 7.29143 10.7402L8.5 11.9142L7.40811 12.9749L7.21381 12.7861C7.15041 12.7245 7.04413 12.7695 7.04413 12.8579V14.5H3.95582V12.8579C3.95582 12.7695 3.84954 12.7246 3.78614 12.7862L3.59188 12.9749L2.5 11.9142L3.70852 10.7403C3.86711 10.5862 4.07949 10.5 4.30058 10.5V10.5C4.39445 10.5 4.469 10.5767 4.48522 10.6692C4.56796 11.1409 4.9908 11.5 5.49999 11.5Z" fill="white"/>
<path d="M16 11.5C16.5092 11.5 16.932 11.1409 17.0148 10.6692C17.031 10.5767 17.1055 10.5 17.1994 10.5V10.5C17.4205 10.5 17.6328 10.5862 17.7914 10.7402L19 11.9142L17.9081 12.9749L17.7138 12.7861C17.6504 12.7245 17.5441 12.7695 17.5441 12.8579V14.5H14.4558V12.8579C14.4558 12.7695 14.3495 12.7246 14.2861 12.7862L14.0919 12.9749L13 11.9142L14.2085 10.7403C14.3671 10.5862 14.5795 10.5 14.8006 10.5V10.5C14.8945 10.5 14.969 10.5767 14.9852 10.6692C15.068 11.1409 15.4908 11.5 16 11.5Z" fill="white"/>
<path d="M26.5 11.5C27.0092 11.5 27.432 11.1409 27.5148 10.6692C27.531 10.5767 27.6055 10.5 27.6994 10.5V10.5C27.9205 10.5 28.1328 10.5862 28.2914 10.7402L29.5 11.9142L28.4081 12.9749L28.2138 12.7861C28.1504 12.7245 28.0441 12.7695 28.0441 12.8579V14.5H24.9558V12.8579C24.9558 12.7695 24.8495 12.7246 24.7861 12.7862L24.5919 12.9749L23.5 11.9142L24.7085 10.7403C24.8671 10.5862 25.0795 10.5 25.3006 10.5V10.5C25.3945 10.5 25.469 10.5767 25.4852 10.6692C25.568 11.1409 25.9908 11.5 26.5 11.5Z" fill="white"/>
<rect x="1" y="1" width="17" height="1" rx="0.5" fill="white"/>
<rect x="6" y="4.5" width="8" height="1" rx="0.5" fill="white"/>
<rect x="20" y="1" width="11" height="1" rx="0.5" fill="white"/>
<rect x="16" y="4.5" width="10" height="1" rx="0.5" fill="white"/>
</svg>
