<svg width="32" height="18" viewBox="0 0 32 18" fill="none" xmlns="http://www.w3.org/2000/svg">
<rect x="15" y="6" width="7" height="1" rx="0.5" fill="white"/>
<rect x="15" y="10" width="12" height="1" rx="0.5" fill="white"/>
<rect x="24" y="6" width="7" height="1" rx="0.5" fill="white"/>
<path fill-rule="evenodd" clip-rule="evenodd" d="M8.61406 4.09438C8.71015 3.78933 9.06398 3.65167 9.34096 3.81158L13.4282 6.17135L11.4282 9.63546L10.183 8.91654V13.643H4.18301V8.91654L3 9.59956L1 6.13546L5.02506 3.81158C5.30204 3.65167 5.65588 3.78933 5.75196 4.09438C5.94361 4.7028 6.51255 5.14304 7.18301 5.14304C7.85347 5.14304 8.42242 4.7028 8.61406 4.09438ZM2.36603 6.50148L3.36602 8.23353L4.43301 7.61751C4.76635 7.42506 5.18301 7.66562 5.18301 8.05052V12.643H9.18301V8.05052C9.18301 7.66562 9.59968 7.42506 9.93301 7.61751L11.0622 8.26943L12.0622 6.53738L9.31399 4.95071C8.87432 5.66578 8.08482 6.14304 7.18301 6.14304C6.2812 6.14304 5.49171 5.66578 5.05203 4.95071L2.36603 6.50148Z" fill="white"/>
</svg>
