<svg width="32" height="18" viewBox="0 0 32 18" fill="none" xmlns="http://www.w3.org/2000/svg">
<path fill-rule="evenodd" clip-rule="evenodd" d="M18.99 12.03C19.39 11.6633 19.59 11.2167 19.59 10.69C19.59 10.2633 19.48 9.92334 19.26 9.67001C19.0467 9.41001 18.7833 9.21667 18.47 9.09001C18.2075 8.9783 17.8842 8.87128 17.5 8.76893V6.40077C17.8486 6.44428 18.1877 6.54197 18.5175 6.69384C18.7621 6.80651 19.0639 6.71242 19.1666 6.46346C19.2444 6.27466 19.1815 6.05419 19.0002 5.96009C18.8106 5.86169 18.6006 5.77832 18.37 5.71C18.0885 5.62501 17.7985 5.56965 17.5 5.54391V5.5C17.5 5.22386 17.2761 5 17 5C16.9907 5 16.9814 5.00026 16.9722 5.00076C16.9649 5.00026 16.9575 5 16.95 5C16.8818 5 16.8187 5.0213 16.7668 5.05761C16.6081 5.14143 16.5 5.30809 16.5 5.5V5.55232C15.8237 5.62589 15.3037 5.83512 14.94 6.18C14.56 6.54667 14.37 6.99334 14.37 7.52001C14.37 7.94001 14.4733 8.28 14.68 8.54C14.8933 8.8 15.1533 8.99667 15.46 9.13001C15.7438 9.25076 16.0904 9.36332 16.5 9.46767V11.8093C16.1468 11.7745 15.8068 11.6948 15.48 11.57C15.3142 11.5037 15.1614 11.4299 15.0215 11.3486C14.7812 11.2089 14.4493 11.2744 14.3302 11.5255C14.2527 11.6888 14.2888 11.8862 14.4363 11.9905C14.659 12.1479 14.9268 12.2844 15.24 12.4C15.6406 12.5396 16.0606 12.6267 16.5 12.6613V12.8C16.5 13.0761 16.7238 13.3 17 13.3C17.2761 13.3 17.5 13.0761 17.5 12.8V12.6462C18.141 12.5638 18.6377 12.3584 18.99 12.03ZM17.5 11.7813C17.8329 11.7269 18.0896 11.6231 18.27 11.47C18.4967 11.2767 18.61 11.0367 18.61 10.75C18.61 10.4567 18.4933 10.2333 18.26 10.08C18.0753 9.94962 17.8219 9.83252 17.5 9.72869V11.7813ZM16.5 6.40908V8.51467C16.1497 8.41435 15.8763 8.2928 15.68 8.15C15.46 7.99 15.35 7.76667 15.35 7.48C15.35 7.2 15.4567 6.96334 15.67 6.77001C15.8611 6.59086 16.1377 6.47055 16.5 6.40908Z" fill="white"/>
<path d="M27.6222 9.67C27.1622 9.67 26.7522 9.58333 26.3922 9.41C26.0255 9.23667 25.7388 8.98667 25.5322 8.66C25.3255 8.34 25.2222 7.97 25.2222 7.55C25.2222 7.11 25.3322 6.72333 25.5522 6.39C25.7655 6.05667 26.0622 5.79667 26.4422 5.61C26.8155 5.43 27.2355 5.34 27.7022 5.34C28.6422 5.34 29.3688 5.64333 29.8822 6.25C30.3888 6.85667 30.6422 7.71667 30.6422 8.83C30.6422 9.61 30.5055 10.2733 30.2322 10.82C29.9522 11.3733 29.5655 11.79 29.0722 12.07C28.5722 12.3567 27.9922 12.5 27.3322 12.5C26.9922 12.5 26.6722 12.4633 26.3722 12.39C26.2168 12.3555 26.0721 12.312 25.9382 12.2596C25.7346 12.1799 25.6654 11.9396 25.7611 11.7431C25.873 11.5136 26.1635 11.4365 26.4065 11.5149C26.6654 11.5983 26.9673 11.64 27.3122 11.64C28.0388 11.64 28.6088 11.4133 29.0222 10.96C29.4355 10.5133 29.6422 9.86 29.6422 9C29.6422 8.9149 29.5361 8.88458 29.4798 8.94841C29.3003 9.15199 29.0778 9.31252 28.8122 9.43C28.4588 9.59 28.0622 9.67 27.6222 9.67ZM27.7422 6.15C27.2822 6.15 26.9088 6.27333 26.6222 6.52C26.3355 6.76667 26.1922 7.09667 26.1922 7.51C26.1922 7.92333 26.3388 8.25 26.6322 8.49C26.9188 8.73667 27.3055 8.86 27.7922 8.86C28.1055 8.86 28.3855 8.8 28.6322 8.68C28.8722 8.56 29.0622 8.39667 29.2022 8.19C29.3355 7.98333 29.4022 7.75333 29.4022 7.5C29.4022 7.25333 29.3388 7.02667 29.2122 6.82C29.0788 6.62 28.8888 6.45667 28.6422 6.33C28.3888 6.21 28.0888 6.15 27.7422 6.15Z" fill="white"/>
<path fill-rule="evenodd" clip-rule="evenodd" d="M8.61406 4.59438C8.71015 4.28933 9.06398 4.15167 9.34096 4.31158L13.4282 6.67135L11.4282 10.1355L10.183 9.41654V14.143H4.18301V9.41654L3 10.0996L1 6.63546L5.02506 4.31158C5.30204 4.15167 5.65588 4.28933 5.75196 4.59438C5.94361 5.2028 6.51255 5.64304 7.18301 5.64304C7.85347 5.64304 8.42242 5.2028 8.61406 4.59438ZM2.36603 7.00148L3.36602 8.73353L4.43301 8.11751C4.76635 7.92506 5.18301 8.16562 5.18301 8.55052V13.143H9.18301V8.55052C9.18301 8.16562 9.59968 7.92506 9.93301 8.11751L11.0622 8.76943L12.0622 7.03738L9.31399 5.45071C8.87432 6.16578 8.08482 6.64304 7.18301 6.64304C6.2812 6.64304 5.49171 6.16578 5.05203 5.45071L2.36603 7.00148Z" fill="white"/>
<path d="M22.5 7.20193L21.7206 7.95C21.5243 8.13841 21.2133 8.13522 21.0209 7.94283C20.8229 7.74477 20.8262 7.42264 21.0283 7.22869C21.4824 6.79282 22.7238 5.5 23 5.5C23.2761 5.5 23.5 5.72386 23.5 6V12C23.5 12.2761 23.2761 12.5 23 12.5C22.7238 12.5 22.5 12.2761 22.5 12V7.20193Z" fill="white"/>
</svg>
