<svg width="32" height="18" viewBox="0 0 32 18" fill="none" xmlns="http://www.w3.org/2000/svg">
<path fill-rule="evenodd" clip-rule="evenodd" d="M17.6141 1.59438C17.7101 1.28933 18.064 1.15167 18.341 1.31158L22.4282 3.67135L20.4282 7.13546L19.183 6.41654V11.143H13.183V6.41654L12 7.09956L10 3.63546L14.0251 1.31158C14.302 1.15167 14.6559 1.28933 14.752 1.59438C14.9436 2.2028 15.5126 2.64304 16.183 2.64304C16.8535 2.64304 17.4224 2.2028 17.6141 1.59438ZM11.366 4.00148L12.366 5.73353L13.433 5.11751C13.7663 4.92506 14.183 5.16562 14.183 5.55052V10.143H18.183V5.55052C18.183 5.16562 18.5997 4.92506 18.933 5.11751L20.0622 5.76943L21.0622 4.03738L18.314 2.45071C17.8743 3.16578 17.0848 3.64304 16.183 3.64304C15.2812 3.64304 14.4917 3.16578 14.052 2.45071L11.366 4.00148Z" fill="white"/>
<rect x="1" y="14" width="13" height="1" rx="0.5" fill="white"/>
<rect x="16" y="14" width="6" height="1" rx="0.5" fill="white"/>
<rect x="24" y="14" width="7" height="1" rx="0.5" fill="white"/>
</svg>
