<svg width="32" height="18" viewBox="0 0 32 18" fill="none" xmlns="http://www.w3.org/2000/svg">
<path fill-rule="evenodd" clip-rule="evenodd" d="M8.61406 1.59438C8.71015 1.28933 9.06398 1.15167 9.34096 1.31158L13.4282 3.67135L11.4282 7.13546L10.183 6.41654V11.143H4.18301V6.41654L3 7.09956L1 3.63546L5.02506 1.31158C5.30204 1.15167 5.65588 1.28933 5.75196 1.59438C5.94361 2.2028 6.51255 2.64304 7.18301 2.64304C7.85347 2.64304 8.42242 2.2028 8.61406 1.59438ZM2.36603 4.00148L3.36602 5.73353L4.43301 5.11751C4.76635 4.92506 5.18301 5.16562 5.18301 5.55052V10.143H9.18301V5.55052C9.18301 5.16562 9.59968 4.92506 9.93301 5.11751L11.0622 5.76943L12.0622 4.03738L9.31399 2.45071C8.87432 3.16578 8.08482 3.64304 7.18301 3.64304C6.2812 3.64304 5.49171 3.16578 5.05203 2.45071L2.36603 4.00148Z" fill="white"/>
<rect x="15" y="1" width="16" height="1" rx="0.5" fill="white"/>
<rect x="15" y="11" width="9" height="1" rx="0.5" fill="white"/>
<rect x="15" y="6" width="4" height="1" rx="0.5" fill="white"/>
<rect x="26" y="11" width="4" height="1" rx="0.5" fill="white"/>
<rect x="21" y="6" width="7" height="1" rx="0.5" fill="white"/>
<rect x="15" y="16" width="7" height="1" rx="0.5" fill="white"/>
</svg>
