<svg width="32" height="18" viewBox="0 0 32 18" fill="none" xmlns="http://www.w3.org/2000/svg">
<path fill-rule="evenodd" clip-rule="evenodd" d="M8.61406 4.59438C8.71015 4.28933 9.06398 4.15167 9.34096 4.31158L13.4282 6.67135L11.4282 10.1355L10.183 9.41654V14.143H4.18301V9.41654L3 10.0996L1 6.63546L5.02506 4.31158C5.30204 4.15167 5.65588 4.28933 5.75196 4.59438V4.59438C5.94361 5.2028 6.51255 5.64304 7.18301 5.64304C7.85347 5.64304 8.42242 5.2028 8.61406 4.59438V4.59438ZM2.36603 7.00148L3.36602 8.73353L4.43301 8.11751C4.76635 7.92506 5.18301 8.16562 5.18301 8.55052V13.143H9.18301V8.55052C9.18301 8.16562 9.59968 7.92506 9.93301 8.11751L11.0622 8.76943L12.0622 7.03738L9.31399 5.45071C8.87432 6.16578 8.08482 6.64304 7.18301 6.64304C6.2812 6.64304 5.49171 6.16578 5.05203 5.45071L2.36603 7.00148Z" fill="white"/>
<path fill-rule="evenodd" clip-rule="evenodd" d="M17.9848 7.68686C17.9489 7.79709 17.8893 7.89462 17.8126 7.97449C17.7509 8.03865 17.6783 8.09141 17.5982 8.1302C17.4986 8.17848 17.3874 8.2051 17.2715 8.2051H16.0308C16.0211 8.2051 16.0171 8.21749 16.0249 8.22319L17.0286 8.95244C17.1224 9.02056 17.1967 9.10746 17.249 9.2051C17.291 9.28354 17.3187 9.36891 17.3308 9.45705C17.346 9.56675 17.3369 9.68073 17.3011 9.79096L16.9177 10.9709C16.9147 10.9801 16.9253 10.9878 16.9331 10.9821L17.9368 10.2528C18.0306 10.1847 18.1362 10.1409 18.2452 10.1214C18.3328 10.1057 18.4225 10.1057 18.5101 10.1214C18.6191 10.1409 18.7247 10.1847 18.8185 10.2528L19.8222 10.9821C19.8301 10.9878 19.8406 10.9801 19.8376 10.9709L19.4542 9.79096C19.4184 9.68073 19.4094 9.56675 19.4245 9.45705C19.4366 9.36891 19.4644 9.28354 19.5063 9.2051C19.5586 9.10746 19.6329 9.02056 19.7267 8.95244L20.7304 8.22319C20.7382 8.21749 20.7342 8.2051 20.7245 8.2051H19.4839C19.3679 8.2051 19.2567 8.17848 19.1571 8.1302C19.077 8.09141 19.0044 8.03865 18.9428 7.97449C18.8661 7.89462 18.8064 7.79709 18.7706 7.68686L18.3872 6.50691C18.3842 6.4977 18.3711 6.4977 18.3681 6.50691L17.9848 7.68686ZM19.6655 7.2051L19.3382 6.19789C19.0359 5.26736 17.7194 5.26738 17.4171 6.19789L17.0898 7.2051H16.0308C15.0524 7.2051 14.6456 8.45711 15.4371 9.0322L16.2939 9.65469L15.9667 10.6619C15.6643 11.5924 16.7293 12.3662 17.5209 11.7911L18.3777 11.1686L19.2344 11.7911C20.026 12.3662 21.091 11.5924 20.7887 10.6619L20.4614 9.65469L21.3182 9.0322C22.1097 8.4571 21.7029 7.2051 20.7245 7.2051H19.6655Z" fill="white"/>
<path fill-rule="evenodd" clip-rule="evenodd" d="M25.9848 7.68686C25.9489 7.79709 25.8893 7.89462 25.8126 7.97449C25.7509 8.03865 25.6783 8.09141 25.5982 8.1302C25.4986 8.17848 25.3874 8.2051 25.2715 8.2051H24.0308C24.0211 8.2051 24.0171 8.21749 24.0249 8.22319L25.0286 8.95244C25.1224 9.02056 25.1967 9.10746 25.249 9.2051C25.291 9.28354 25.3187 9.36891 25.3308 9.45705C25.346 9.56675 25.3369 9.68073 25.3011 9.79096L24.9177 10.9709C24.9147 10.9801 24.9253 10.9878 24.9331 10.9821L25.9368 10.2528C26.0306 10.1847 26.1362 10.1409 26.2452 10.1214C26.3328 10.1057 26.4225 10.1057 26.5101 10.1214C26.6191 10.1409 26.7247 10.1847 26.8185 10.2528L27.8222 10.9821C27.8301 10.9878 27.8406 10.9801 27.8376 10.9709L27.4542 9.79096C27.4184 9.68073 27.4094 9.56675 27.4245 9.45705C27.4366 9.36891 27.4644 9.28354 27.5063 9.2051C27.5586 9.10746 27.6329 9.02056 27.7267 8.95244L28.7304 8.22319C28.7382 8.21749 28.7342 8.2051 28.7245 8.2051H27.4839C27.3679 8.2051 27.2567 8.17848 27.1571 8.1302C27.077 8.09141 27.0044 8.03865 26.9428 7.97449C26.8661 7.89462 26.8064 7.79709 26.7706 7.68686L26.3872 6.50691C26.3842 6.4977 26.3711 6.4977 26.3681 6.50691L25.9848 7.68686ZM27.6655 7.2051L27.3382 6.19789C27.0359 5.26736 25.7194 5.26738 25.4171 6.19789L25.0898 7.2051H24.0308C23.0524 7.2051 22.6456 8.45711 23.4371 9.0322L24.2939 9.65469L23.9667 10.6619C23.6643 11.5924 24.7293 12.3662 25.5209 11.7911L26.3777 11.1686L27.2344 11.7911C28.026 12.3662 29.091 11.5924 28.7887 10.6619L28.4614 9.65469L29.3182 9.0322C30.1097 8.4571 29.7029 7.2051 28.7245 7.2051H27.6655Z" fill="white"/>
</svg>
