<svg width="32" height="18" viewBox="0 0 32 18" fill="none" xmlns="http://www.w3.org/2000/svg">
<rect x="18" y="8.5" width="10" height="1" rx="0.5" fill="white"/>
<path fill-rule="evenodd" clip-rule="evenodd" d="M8.61406 4.59438C8.71015 4.28933 9.06398 4.15167 9.34096 4.31158L13.4282 6.67135L11.4282 10.1355L10.183 9.41654V14.143H4.18301V9.41654L3 10.0996L1 6.63546L5.02506 4.31158C5.30204 4.15167 5.65588 4.28933 5.75196 4.59438C5.94361 5.2028 6.51255 5.64304 7.18301 5.64304C7.85347 5.64304 8.42242 5.2028 8.61406 4.59438ZM2.36603 7.00148L3.36602 8.73353L4.43301 8.11751C4.76635 7.92506 5.18301 8.16562 5.18301 8.55052V13.143H9.18301V8.55052C9.18301 8.16562 9.59968 7.92506 9.93301 8.11751L11.0622 8.76943L12.0622 7.03738L9.31399 5.45071C8.87432 6.16578 8.08482 6.64304 7.18301 6.64304C6.2812 6.64304 5.49171 6.16578 5.05203 5.45071L2.36603 7.00148Z" fill="white"/>
<rect x="15.5" y="6" width="15" height="6" rx="1.5" stroke="white"/>
</svg>
